<svg width="69" height="8" viewBox="0 0 69 8" fill="none" xmlns="http://www.w3.org/2000/svg">
<g id="Group 1788">
<g id="Group 1789">
<g id="Group 1828">
<path id="AI Copy 4" fill-rule="evenodd" clip-rule="evenodd" d="M62.7517 2.32401L60.4756 7.42355H58.9473L61.9899 0.612061L63.5135 0.612061L66.5561 7.42355H65.0324L62.7517 2.32401ZM68.9586 0.612061V7.42355L67.3566 7.42355V0.612061L68.9586 0.612061Z" fill="#0B3694"/>
<path id="." d="M57.0839 4.74874V3.35541H55.6211V4.74874H57.0839Z" fill="#0B3694"/>
<g id="cognigy_logo">
<path id="path4639" d="M7.90226 6.06975V7.43637H3.15065C1.56115 7.43637 0.773437 6.68607 0.773437 5.17207L0.773437 2.89437C0.773438 1.38037 1.56115 0.630066 3.15065 0.630066L7.90507 0.630066V1.99669L3.3307 1.99669C2.57111 1.99669 2.17726 2.35844 2.17726 3.08194V4.9711C2.17726 5.6946 2.55705 6.06975 3.3307 6.06975H7.90226Z" fill="#171D29"/>
<path id="path4641" fill-rule="evenodd" clip-rule="evenodd" d="M11.7288 7.42404H14.1031C15.6786 7.42404 16.4803 6.66034 16.4831 5.14634V2.88204C16.4831 1.36804 15.6954 0.617737 14.1059 0.617737L11.7288 0.617737C10.1393 0.617737 9.35156 1.36804 9.35156 2.88204V5.15974C9.35156 6.67374 10.1393 7.42404 11.7288 7.42404ZM15.0593 4.9324C15.0593 5.69615 14.6514 6.07133 13.8636 6.07133L11.9645 6.08473C11.1626 6.08473 10.7688 5.69615 10.7688 4.9458V3.1235C10.7688 2.35974 11.0642 1.98456 11.7113 1.98456H13.8636C14.6654 1.98456 15.0593 2.37314 15.0593 3.1235V4.9324Z" fill="#171D29"/>
<path id="path4643" d="M25.0644 3.79269V7.42361H20.3128C18.7233 7.42361 17.9355 6.67331 17.9355 5.15931V2.88161C17.9355 1.36761 18.7233 0.61731 20.3128 0.61731L25.0672 0.61731V1.98393L20.4956 1.98393C19.736 1.98393 19.3422 2.34568 19.3422 3.06919V4.97174C19.3422 5.69524 19.722 6.07039 20.4956 6.07039H23.6324V3.79269H25.0644Z" fill="#171D29"/>
<path id="path4645" d="M27.9191 2.68064V7.42362H26.4844V0.61731L27.9473 0.61731L32.2093 5.36029V0.61731L33.6441 0.61731V7.43702H32.1812L27.9191 2.68064Z" fill="#171D29"/>
<path id="path4647" d="M36.5141 7.42361H35.082V0.61731L36.5169 0.61731L36.5141 7.42361Z" fill="#171D29"/>
<path id="path4649" d="M45.0964 3.79233V7.42325H40.342C38.7526 7.42325 37.9648 6.67295 37.9648 5.15895V2.88125C37.9648 1.36724 38.7526 0.616943 40.342 0.616943L45.0964 0.616943V1.98356L40.5249 1.98356C39.7653 1.98356 39.3715 2.34532 39.3715 3.06882V4.97137C39.3715 5.69488 39.7513 6.07003 40.5249 6.07003H43.6645V3.79233H45.0964Z" fill="#171D29"/>
<path id="Path" d="M53.4269 0.612061L51.9922 0.612061V2.07247C51.9922 2.80937 51.6124 3.17112 50.8387 3.17112L48.8554 3.17112C48.0958 3.17112 47.716 2.80937 47.716 2.07247L47.7019 0.612061H46.2812V2.24665C46.2812 3.76065 47.069 4.51095 48.6585 4.51095H49.1325V7.42239H50.5672V4.51095H51.0357C52.6251 4.51095 53.4129 3.76065 53.4129 2.24665L53.4269 1.01401V0.612061Z" fill="#171D29"/>
</g>
</g>
</g>
</g>
</svg>
